/* XPM */
static char *result[] = {
/* columns rows colors chars-per-pixel */
"32 32 149 2 ",
"   c #050503",
".  c #0A0802",
"X  c #15130E",
"o  c #18150D",
"O  c #0B1117",
"+  c #0E1319",
"@  c #181612",
"#  c #1D1A14",
"$  c #141619",
"%  c #16191B",
"&  c #1A1A1C",
"*  c #221F19",
"=  c #312106",
"-  c #26221D",
";  c #2A251D",
":  c #312917",
">  c #242424",
",  c #2A2722",
"<  c #2A2924",
"1  c #2C2D2E",
"2  c #332E25",
"3  c #3F392D",
"4  c #2D2F30",
"5  c #2C3031",
"6  c #343333",
"7  c #393736",
"8  c #3C3834",
"9  c #402B04",
"0  c #532E00",
"q  c #4D320F",
"w  c #553300",
"e  c #5B3502",
"r  c #413215",
"t  c #513511",
"y  c #543A13",
"u  c #743C00",
"i  c #423B2E",
"p  c #463E32",
"a  c #6F4000",
"s  c #674308",
"d  c #744300",
"f  c #7C4200",
"g  c #7D4E07",
"h  c #654316",
"j  c #67451D",
"k  c #7C4F14",
"l  c #714C1B",
"z  c #71571E",
"x  c #7B541D",
"c  c #73581E",
"v  c #584326",
"b  c #4B4235",
"n  c #674C26",
"m  c #6E4F28",
"M  c #714C21",
"N  c #6C512E",
"B  c #705226",
"V  c #7B5523",
"C  c #765A21",
"Z  c #795B20",
"A  c #79572C",
"S  c #7D5C2E",
"D  c #715731",
"F  c #735932",
"G  c #7A5C32",
"H  c #6B6B6B",
"J  c #787877",
"K  c #8D4F00",
"L  c #87560B",
"P  c #855615",
"I  c #8D5D1C",
"U  c #846216",
"Y  c #8B6717",
"T  c #84651A",
"R  c #89661A",
"E  c #8E691C",
"W  c #966D15",
"Q  c #986F16",
"!  c #97641F",
"~  c #906B1B",
"^  c #9A6A1E",
"/  c #9B7016",
"(  c #9C7018",
")  c #A66B1B",
"_  c #AB6E1E",
"`  c #AE711D",
"'  c #B2711E",
"]  c #BA7619",
"[  c #BE791C",
"{  c #855B24",
"}  c #895D25",
"|  c #805928",
" . c #8B6523",
".. c #8D6921",
"X. c #8C642B",
"o. c #936324",
"O. c #9F6720",
"+. c #956E23",
"@. c #9F6823",
"#. c #93662E",
"$. c #926B2F",
"%. c #9E702F",
"&. c #846232",
"*. c #8D6731",
"=. c #946C32",
"-. c #996F32",
";. c #A36B23",
":. c #A86D23",
">. c #A57226",
",. c #AA7427",
"<. c #A47229",
"1. c #AA7429",
"2. c #AC7A2E",
"3. c #B17320",
"4. c #B57C24",
"5. c #B97D26",
"6. c #B0772A",
"7. c #B27D2E",
"8. c #A67935",
"9. c #AC7B31",
"0. c #B17D31",
"q. c #B4802D",
"w. c #BE842C",
"e. c #B48132",
"r. c #B98431",
"t. c #BF8835",
"y. c #C1872E",
"u. c #C4882E",
"i. c #D5922C",
"p. c #C38931",
"a. c #7E8286",
"s. c #828485",
"d. c #878D98",
"f. c gray57",
"g. c #92969F",
"h. c #9499A0",
"j. c #A4A4A4",
"k. c #A0A6AE",
"l. c #A3ADBC",
"z. c #B4B5B5",
"x. c #AFB8C5",
"c. c #C0C1C2",
"v. c #CBCACA",
"b. c #CCD3DC",
"n. c #D6D5D5",
"m. c #D4DBE4",
"M. c #DBE3EF",
"N. c #E4EBF7",
"B. c #E8FAFF",
/* pixels */
"p p 3 8 i i i 3 i i p p p p p p p i p p b p p p p p i b i b < 2 ",
"p p 4 4 4 4 5 5 4 5 6 6 7 6 6 7 4 4 7 6 6 6 6 6 6 6 6 6 5 7 2 2 ",
"p 6 i.w.4.4.] ] 5.4.4.5./ / ( ( ( ( ( ( ( / 5.5./ / q.4.w.i.O - ",
"p 6 w.1.>.<._ ` <.>.,.1.T R ~ E ~ ~ T R R T <.<.T T ,.;.2.u.+ ; ",
"p 6 w.9.T R R R R R R U 1.2.x { X.{ 0.0.0.0.;.<._ ) 9.2.2.u.+ - ",
"p 6 y.0.U R R R R R R T 6.2.a d L g e.9.9.0.;.<.` ) e.2.2.p.+ - ",
"i 6 ' O.;.;.` ,.,._ ` 3.k u B.N.k.x.g k ;.;.;.;.O.@.^ O.) [ $ ; ",
"i 4 [ :.:.:.` _ ` ` ) ' P f M.n.j.x.K I :.:.;.;.) ;.;.;.` [ $ ; ",
"p 7 T C C C C C C C =.=.B s b.v.J f.9 : Z c o.o.*.X. .X.X.%.% ; ",
"p 7 ^  ...o.......R 9.9.{ g m.n.J g.e y +. .:.;.%.%.%.<.%.7.& ; ",
"3 3 > > , > > > < > > > &   z.j.H a.X - 1 , > > - > > & > > # # ",
"3 p - > , , 1 < > < > < * . c.z.H s.o > < < 1 > - > > > > < @ # ",
"p 8 *.&.&.&.G | &.&.&.&.n h h.f.H a.: r } | &.&.&.&.&.&.S =.& < ",
"p 8 G D D F N m F F D G v y l.k.J d.= : A m F D D D D D F &.& < ",
"i 6 ) ! o.o.o.o.o.o.o.#.l V 0 w e e I x o.o.o.o.o.o.o.o.{ +.& ; ",
"i 6 ^ I { { { { { { } } j M q t t q l h o.} { { { { { { V  .& ; ",
"p 6 u.2.7.7.2.7.2.q.) ' ~ Y t.r.r.r.2.6.>.,.,.>.q.q.q.q.=.9.$ - ",
"p 6 u.2.2.2.7.2.2.0.) _ R U 9.2.7.0.>.>.,.>.<.%.2.1.2.q.$.9.$ ; ",
"3 6 W Y R R R R R U 0.9.<.<.>.>.U R R R Y T _ ) 9.2.U R C  .% - ",
"3 4 / R R R R R R U 0.2.,.,.,.,.R E ~ ~ Y U _ ) 2.e.U R C ..% ; ",
"p 6 5.>.<.,.<.>.7.2.2.0.U T R R ~ E E E 1.1.<.%.@.>.,.,.X.<.$ , ",
"p 6 7.>.<.<.>.>.2.2.2.0.I E R R R R R R >.<.<.>.>.<.>.<.X.<.$ - ",
"i 4 ' ;.) ) ) _ O.O.O.O.:.;._ :.:._ :._ ) ) _ _ @.;.;.;.{ @.% ; ",
"i 6 ' O.) ) ) ) O.;.;.;.! ;._ _ _ _ _ _ :.:._ _ ;.^ ;.;.} ;.% - ",
"p 6 y.9.9.9.2.9.2.0.U U e.0.U R R R R R R R R T <.<._ ) =.9.% , ",
"p 6 u.6.2.2.,.2.2.0.U U 0.2.R ~ U R R R R R E R 2.1._ ' =.9.% , ",
"i 6 W T ) ) 9.2.2.1.9.7.2.7.R Y 0.0.,.1.>.2.R E R R R Y C ..& ; ",
"i 7 Q Y ' _ e.2.7.7.2.7.2.7.Y Y 7.7.>.>.1.6.R E Y Y Y ~ C E & ; ",
"p 6 <.-.c C c c c c $.X.*.=.Z c =.X.#.=.C z #.X.=.=.$.=.S =.& , ",
"b 8 r.0.R o.+...o. .9.9.9.9.R  .0.9.9.9.R ..<.<.9.2.9.9.=.8.& , ",
"- * $ $ & & & % & & $ $ $ $ & & $ $ $ $ % % % % + $ % $ # & # # ",
"; ; ; ; ; ; ; ; ; ; ; ; ; ; ; ; ; ; ; ; ; ; ; , - - ; ; ; ; # - "
};
