/* XPM */
static char * exit_open_xpm[] = {
"32 32 731 2",
"  	c #3C3122",
". 	c #362616",
"+ 	c #2B1E10",
"@ 	c #372513",
"# 	c #43301E",
"$ 	c #51443A",
"% 	c #535451",
"& 	c #3B402D",
"* 	c #3D482C",
"= 	c #3A402C",
"- 	c #445030",
"; 	c #4A5834",
"> 	c #393C33",
", 	c #40403C",
"' 	c #5E5F5E",
") 	c #5F645D",
"! 	c #4D4E4C",
"~ 	c #383F2F",
"{ 	c #3B442A",
"] 	c #3B452B",
"^ 	c #465233",
"/ 	c #414B2F",
"( 	c #3E3F3D",
"_ 	c #43463D",
": 	c #5E605B",
"< 	c #5C5D5B",
"[ 	c #4E4D46",
"} 	c #483623",
"| 	c #3C2B1A",
"1 	c #322211",
"2 	c #3A2C20",
"3 	c #34271A",
"4 	c #2C1D0F",
"5 	c #1B1107",
"6 	c #301E0D",
"7 	c #2C1E0E",
"8 	c #442E1C",
"9 	c #403C2B",
"0 	c #404C2B",
"a 	c #484F3A",
"b 	c #3C4038",
"c 	c #404D2A",
"d 	c #3F4A2F",
"e 	c #474B3F",
"f 	c #414141",
"g 	c #4A4B4A",
"h 	c #494A48",
"i 	c #3C3F35",
"j 	c #414F2B",
"k 	c #444D37",
"l 	c #393F30",
"m 	c #465132",
"n 	c #3F4B2D",
"o 	c #41453F",
"p 	c #444543",
"q 	c #4D4D4D",
"r 	c #4B4A49",
"s 	c #453524",
"t 	c #362412",
"u 	c #35220F",
"v 	c #1C1207",
"w 	c #2A1C0C",
"x 	c #33261A",
"y 	c #28241D",
"z 	c #271C11",
"A 	c #190F06",
"B 	c #31200E",
"C 	c #372410",
"D 	c #311F0E",
"E 	c #47341E",
"F 	c #474834",
"G 	c #474B4C",
"H 	c #454643",
"I 	c #3A4429",
"J 	c #454743",
"K 	c #4E4E50",
"L 	c #3D403B",
"M 	c #3B4031",
"N 	c #45473F",
"O 	c #424A34",
"P 	c #445132",
"Q 	c #3E4237",
"R 	c #3C472D",
"S 	c #484945",
"T 	c #4B4B4C",
"U 	c #393D33",
"V 	c #404237",
"W 	c #473C30",
"X 	c #3E2A15",
"Y 	c #2A1C0E",
"Z 	c #372511",
"` 	c #1D1207",
" .	c #271A0D",
"..	c #28231B",
"+.	c #2F3030",
"@.	c #2B2519",
"#.	c #1A1005",
"$.	c #34220F",
"%.	c #3F2A12",
"&.	c #2D1D0D",
"*.	c #432C15",
"=.	c #423A2E",
"-.	c #404042",
";.	c #42433F",
">.	c #333825",
",.	c #3D4135",
"'.	c #42403F",
").	c #484A42",
"!.	c #555755",
"~.	c #414636",
"{.	c #424639",
"].	c #484A46",
"^.	c #434445",
"/.	c #3C4037",
"(.	c #343829",
"_.	c #444441",
":.	c #404041",
"<.	c #484848",
"[.	c #534C47",
"}.	c #442D19",
"|.	c #33220F",
"1.	c #3A2612",
"2.	c #392611",
"3.	c #191006",
"4.	c #282725",
"5.	c #3E3E3C",
"6.	c #2F281C",
"7.	c #1A1006",
"8.	c #342210",
"9.	c #412B15",
"0.	c #271A0C",
"a.	c #3D2812",
"b.	c #3C2716",
"c.	c #343927",
"d.	c #363B2E",
"e.	c #333727",
"f.	c #363A2D",
"g.	c #3F3E3E",
"h.	c #3C3D3A",
"i.	c #474747",
"j.	c #43453F",
"k.	c #373C2F",
"l.	c #3A3D35",
"m.	c #33372B",
"n.	c #363A2F",
"o.	c #2D3121",
"p.	c #3A3C36",
"q.	c #3C3C3C",
"r.	c #424040",
"s.	c #443D2E",
"t.	c #35210E",
"u.	c #312110",
"v.	c #392613",
"w.	c #2E1F10",
"x.	c #424245",
"y.	c #36291E",
"z.	c #2F2111",
"A.	c #402B15",
"B.	c #291B0C",
"C.	c #3E2913",
"D.	c #35220E",
"E.	c #393A30",
"F.	c #323823",
"G.	c #2D331D",
"H.	c #2F3420",
"I.	c #363733",
"J.	c #373A30",
"K.	c #333429",
"L.	c #383B31",
"M.	c #2E3620",
"N.	c #2F3424",
"O.	c #323925",
"P.	c #3C3E36",
"Q.	c #34372C",
"R.	c #383A2D",
"S.	c #392C1D",
"T.	c #2D1E0D",
"U.	c #3D2913",
"V.	c #2D1E0F",
"W.	c #362A21",
"X.	c #35261A",
"Y.	c #312212",
"Z.	c #1B1108",
"`.	c #402B13",
" +	c #2A1B0C",
".+	c #3F2A13",
"++	c #32200B",
"@+	c #40413C",
"#+	c #373C39",
"$+	c #343938",
"%+	c #383E39",
"&+	c #343B35",
"*+	c #383C3A",
"=+	c #333B32",
"-+	c #343C36",
";+	c #373B39",
">+	c #393C3A",
",+	c #323B34",
"'+	c #353A34",
")+	c #333B31",
"!+	c #363937",
"~+	c #323833",
"{+	c #373F2D",
"]+	c #352D18",
"^+	c #3D2813",
"/+	c #3C2812",
"(+	c #382510",
"_+	c #352619",
":+	c #35291B",
"<+	c #2F200F",
"[+	c #1A1007",
"}+	c #452D15",
"|+	c #2B1B07",
"1+	c #60615D",
"2+	c #6F8297",
"3+	c #7586A4",
"4+	c #70839C",
"5+	c #6D809B",
"6+	c #6E829A",
"7+	c #6A7C95",
"8+	c #70819E",
"9+	c #6E7F99",
"0+	c #6B7C96",
"a+	c #70829B",
"b+	c #65768E",
"c+	c #697B93",
"d+	c #677B8B",
"e+	c #6A7C92",
"f+	c #636D66",
"g+	c #342C14",
"h+	c #3E2813",
"i+	c #402A14",
"j+	c #3E2812",
"k+	c #382B1F",
"l+	c #2F2011",
"m+	c #1A1107",
"n+	c #382611",
"o+	c #472F15",
"p+	c #2D1E0A",
"q+	c #3C2811",
"r+	c #332314",
"s+	c #4E5149",
"t+	c #A5BFE8",
"u+	c #AFCBF9",
"v+	c #A9C7F8",
"w+	c #A9C9F8",
"x+	c #A8C7F8",
"y+	c #A7C7F8",
"z+	c #A9C8F8",
"A+	c #ACCBF7",
"B+	c #AFD1F8",
"C+	c #78888A",
"D+	c #37311C",
"E+	c #442D15",
"F+	c #412B13",
"G+	c #39291B",
"H+	c #362410",
"I+	c #483016",
"J+	c #2F1F0D",
"K+	c #412B14",
"L+	c #372311",
"M+	c #536449",
"N+	c #A9C3ED",
"O+	c #B0CEFF",
"P+	c #ADCCFF",
"Q+	c #ACCCFF",
"R+	c #ADCDFF",
"S+	c #B6D3FF",
"T+	c #656E74",
"U+	c #3C311F",
"V+	c #422914",
"W+	c #2E1E0A",
"X+	c #462E15",
"Y+	c #2D1E0E",
"Z+	c #2F1F0F",
"`+	c #352210",
" @	c #462E16",
".@	c #3D2711",
"+@	c #39230F",
"@@	c #555D51",
"#@	c #AAC4EE",
"$@	c #B3D0FF",
"%@	c #B2CFFF",
"&@	c #B1CEFF",
"*@	c #B8D4FF",
"=@	c #6A7070",
"-@	c #45372C",
";@	c #3F2811",
">@	c #2E1E0D",
",@	c #472E15",
"'@	c #3C2711",
")@	c #2A1B0E",
"!@	c #34261A",
"~@	c #482F17",
"{@	c #34210E",
"]@	c #3A250F",
"^@	c #50584F",
"/@	c #AEC9F6",
"(@	c #B4D0FF",
"_@	c #B3CFFF",
":@	c #BAD7FF",
"<@	c #6B7571",
"[@	c #3E3828",
"}@	c #3F2912",
"|@	c #482F16",
"1@	c #281B0C",
"2@	c #34281A",
"3@	c #2B1D0F",
"4@	c #32210F",
"5@	c #3C2510",
"6@	c #4B5746",
"7@	c #AAC5EF",
"8@	c #B4D1FF",
"9@	c #BBD9FF",
"0@	c #636E64",
"a@	c #3C3017",
"b@	c #4A3016",
"c@	c #2F1F0B",
"d@	c #493017",
"e@	c #342619",
"f@	c #1E1308",
"g@	c #483017",
"h@	c #3D2610",
"i@	c #4E5646",
"j@	c #ACC7F1",
"k@	c #C0DEF8",
"l@	c #616E5B",
"m@	c #382D16",
"n@	c #472E16",
"o@	c #4C3218",
"p@	c #33281A",
"q@	c #1F1408",
"r@	c #362310",
"s@	c #4B3117",
"t@	c #3A2611",
"u@	c #412C13",
"v@	c #3D260E",
"w@	c #5B5F5E",
"x@	c #B6D4FF",
"y@	c #72869D",
"z@	c #484E3C",
"A@	c #3F331D",
"B@	c #1F1409",
"C@	c #2A1C0D",
"D@	c #422C13",
"E@	c #3E260F",
"F@	c #535B54",
"G@	c #ABC5EE",
"H@	c #B5D2FF",
"I@	c #B3D0FE",
"J@	c #B5D1FB",
"K@	c #B4D0F9",
"L@	c #B3D1FF",
"M@	c #B3D0FD",
"N@	c #B5D0F9",
"O@	c #B8D4FD",
"P@	c #768BA0",
"Q@	c #4E583D",
"R@	c #3F3321",
"S@	c #4B3118",
"T@	c #1E1409",
"U@	c #37281A",
"V@	c #1C1107",
"W@	c #583E17",
"X@	c #3F2E19",
"Y@	c #472F16",
"Z@	c #412810",
"`@	c #5C5F5D",
" #	c #A8C3E9",
".#	c #B7D3FD",
"+#	c #B5D1F8",
"@#	c #B4D0F6",
"##	c #B5D2F6",
"$#	c #AFCBEF",
"%#	c #97B0CA",
"&#	c #869AA6",
"*#	c #ADCBF7",
"=#	c #A6C0E2",
"-#	c #889BAC",
";#	c #9BB3C4",
">#	c #B1CCF0",
",#	c #575C5A",
"'#	c #403120",
")#	c #3A2713",
"!#	c #593E1B",
"~#	c #402A15",
"{#	c #201409",
"]#	c #2C1D0C",
"^#	c #342519",
"/#	c #252321",
"(#	c #291D10",
"_#	c #27190B",
":#	c #352110",
"<#	c #9C7B10",
"[#	c #674E0E",
"}#	c #39240D",
"|#	c #626662",
"1#	c #ADC8EF",
"2#	c #B7D3FC",
"3#	c #A5BEE2",
"4#	c #7C8D92",
"5#	c #6F7B73",
"6#	c #647269",
"7#	c #545553",
"8#	c #4F4E45",
"9#	c #4B4837",
"0#	c #575F59",
"a#	c #555B51",
"b#	c #515C40",
"c#	c #58654B",
"d#	c #5C695B",
"e#	c #5F6453",
"f#	c #3F2F1D",
"g#	c #524110",
"h#	c #997B04",
"i#	c #4F3610",
"j#	c #26190B",
"k#	c #291C0E",
"l#	c #282017",
"m#	c #2F2E29",
"n#	c #292015",
"o#	c #2C1C0C",
"p#	c #38250E",
"q#	c #71530B",
"r#	c #563D0D",
"s#	c #3F2914",
"t#	c #37240F",
"u#	c #4F564D",
"v#	c #A7C2E1",
"w#	c #9EB5C9",
"x#	c #5A645C",
"y#	c #4B5233",
"z#	c #4C522D",
"A#	c #494B29",
"B#	c #474724",
"C#	c #494625",
"D#	c #46442A",
"E#	c #4E552A",
"F#	c #4A4727",
"G#	c #4C4E2A",
"H#	c #4A4B26",
"I#	c #4D4D26",
"J#	c #676566",
"K#	c #3B311E",
"L#	c #4A3410",
"M#	c #715309",
"N#	c #3B2811",
"O#	c #2B1C0C",
"P#	c #2C1E0F",
"Q#	c #302E2E",
"R#	c #3E3E3B",
"S#	c #2E271C",
"T#	c #30200D",
"U#	c #32200E",
"V#	c #3A280F",
"W#	c #32210C",
"X#	c #271708",
"Y#	c #4F593B",
"Z#	c #556451",
"`#	c #546048",
" $	c #4F532D",
".$	c #4C512A",
"+$	c #4F562C",
"@$	c #4F572B",
"#$	c #4C492B",
"$$	c #4B4928",
"%$	c #505D2D",
"&$	c #4F572C",
"*$	c #4C4F2A",
"=$	c #4E5E2F",
"-$	c #514828",
";$	c #545D33",
">$	c #53564C",
",$	c #3A301D",
"'$	c #34230C",
")$	c #2F1D0D",
"!$	c #261E12",
"~$	c #35291F",
"{$	c #2D1F0F",
"]$	c #271A0B",
"^$	c #2E1E0E",
"/$	c #2E1F0F",
"($	c #281A0B",
"_$	c #2E1C06",
":$	c #5F6650",
"<$	c #526235",
"[$	c #49542C",
"}$	c #4A4F29",
"|$	c #4F5930",
"1$	c #4C5A32",
"2$	c #4D512C",
"3$	c #567033",
"4$	c #536D32",
"5$	c #506631",
"6$	c #4C5B2B",
"7$	c #4A5529",
"8$	c #495629",
"9$	c #536931",
"0$	c #536B32",
"a$	c #5B654A",
"b$	c #43362D",
"c$	c #3B2611",
"d$	c #35271A",
"e$	c #36230F",
"f$	c #422B13",
"g$	c #301E09",
"h$	c #575953",
"i$	c #556142",
"j$	c #433E4E",
"k$	c #514B3F",
"l$	c #48544F",
"m$	c #415858",
"n$	c #464D2E",
"o$	c #485A2D",
"p$	c #526B31",
"q$	c #546F33",
"r$	c #556E33",
"s$	c #51652F",
"t$	c #536C32",
"u$	c #5A634F",
"v$	c #45392F",
"w$	c #2C1D0D",
"x$	c #3D2912",
"y$	c #382B20",
"z$	c #402914",
"A$	c #331F0F",
"B$	c #4E593A",
"C$	c #4F623D",
"D$	c #455B5F",
"E$	c #51683C",
"F$	c #4F6746",
"G$	c #526840",
"H$	c #4D492D",
"I$	c #4B4A28",
"J$	c #494123",
"K$	c #494E27",
"L$	c #46552D",
"M$	c #4F6630",
"N$	c #4C622E",
"O$	c #455629",
"P$	c #526A31",
"Q$	c #4B5637",
"R$	c #3C3222",
"S$	c #3E2912",
"T$	c #281B0D",
"U$	c #372A1F",
"V$	c #332110",
"W$	c #3E2915",
"X$	c #34200F",
"Y$	c #4D5938",
"Z$	c #5A6F3C",
"`$	c #567036",
" %	c #536D33",
".%	c #546F32",
"+%	c #526D31",
"@%	c #566F32",
"#%	c #536634",
"$%	c #52422A",
"%%	c #504629",
"&%	c #566C33",
"*%	c #4C4D29",
"=%	c #4C502B",
"-%	c #4D4B2A",
";%	c #4F553D",
">%	c #3E351D",
",%	c #3A2714",
"'%	c #3E2A13",
")%	c #322110",
"!%	c #3D2914",
"~%	c #422C15",
"{%	c #382007",
"]%	c #5B5C57",
"^%	c #586F39",
"/%	c #577133",
"(%	c #546D32",
"_%	c #516931",
":%	c #577134",
"<%	c #557134",
"[%	c #516832",
"}%	c #536932",
"|%	c #5A7335",
"1%	c #526B32",
"2%	c #505E2C",
"3%	c #5D6D35",
"4%	c #4C5635",
"5%	c #382E18",
"6%	c #452D14",
"7%	c #3B2612",
"8%	c #180F06",
"9%	c #332519",
"0%	c #35291A",
"a%	c #38220C",
"b%	c #54574E",
"c%	c #516733",
"d%	c #516B31",
"e%	c #546E33",
"f%	c #557035",
"g%	c #526D33",
"h%	c #4D612D",
"i%	c #536B33",
"j%	c #556E34",
"k%	c #577235",
"l%	c #556F35",
"m%	c #546C33",
"n%	c #587338",
"o%	c #5B6A46",
"p%	c #3B301D",
"q%	c #452E14",
"r%	c #432D15",
"s%	c #34200B",
"t%	c #5F6257",
"u%	c #5F7345",
"v%	c #5C7240",
"w%	c #637745",
"x%	c #607446",
"y%	c #5D6E44",
"z%	c #616C4F",
"A%	c #54693A",
"B%	c #63774B",
"C%	c #617642",
"D%	c #576C3D",
"E%	c #5C6C45",
"F%	c #5D7240",
"G%	c #6D7D57",
"H%	c #5B6F42",
"I%	c #5E6754",
"J%	c #393123",
"K%	c #332210",
"L%	c #452E16",
"M%	c #3A240C",
"N%	c #6F706C",
"O%	c #6D7268",
"P%	c #6C7859",
"Q%	c #6F7662",
"R%	c #636F50",
"S%	c #647051",
"T%	c #767675",
"U%	c #70716F",
"V%	c #7C7D7B",
"W%	c #5A644A",
"X%	c #747E65",
"Y%	c #6D7360",
"Z%	c #5E6D48",
"`%	c #6C7364",
" &	c #6A6C68",
".&	c #7B7C78",
"+&	c #442D14",
"@&	c #452D16",
"#&	c #3A210F",
"$&	c #6A7B4F",
"%&	c #657254",
"&&	c #6A6A68",
"*&	c #666C59",
"=&	c #68715C",
"-&	c #6E8053",
";&	c #6A6E5E",
">&	c #63714B",
",&	c #64744D",
"'&	c #696A64",
")&	c #6B7163",
"!&	c #687259",
"~&	c #636B57",
"{&	c #677A49",
"]&	c #6F7363",
"^&	c #3E3220",
"/&	c #4C3216",
"(&	c #2B1D0E",
"_&	c #482E19",
":&	c #3A210A",
"<&	c #777C6E",
"[&	c #5F674F",
"}&	c #7C8370",
"|&	c #656E55",
"1&	c #617644",
"2&	c #5A6B41",
"3&	c #6A7659",
"4&	c #70726D",
"5&	c #777971",
"6&	c #7E8376",
"7&	c #676C5C",
"8&	c #788169",
"9&	c #616C4A",
"0&	c #5B6940",
"a&	c #747D60",
"b&	c #4B3116",
"c&	c #402A13",
"d&	c #271A0E",
"e&	c #332619",
"f&	c #36240F",
"g&	c #472F17",
"h&	c #402609",
"i&	c #70716D",
"j&	c #71746B",
"k&	c #848A79",
"l&	c #656761",
"m&	c #637052",
"n&	c #6D7264",
"o&	c #67784D",
"p&	c #737E63",
"q&	c #707A60",
"r&	c #81837E",
"s&	c #5E615A",
"t&	c #828778",
"u&	c #8C8E89",
"v&	c #5E6551",
"w&	c #75786F",
"x&	c #6E7660",
"y&	c #4A3F2B",
"z&	c #492F17",
"A&	c #281B0E",
"B&	c #3C3124",
"C&	c #3A2D17",
"D&	c #5F7041",
"E&	c #67764F",
"F&	c #777973",
"G&	c #5F6259",
"H&	c #72805D",
"I&	c #8F8F8E",
"J&	c #6D7067",
"K&	c #7B8272",
"L&	c #969794",
"M&	c #74796B",
"N&	c #5D6C43",
"O&	c #66794A",
"P&	c #6B7069",
"Q&	c #666862",
"R&	c #617148",
"S&	c #91928E",
"T&	c #676462",
"U&	c #39250C",
"V&	c #35210F",
"  . + @ # $ % & * = - ; > , ' ) ! ~ { ] ^ / ( _ : < [ } | 1 . 2 ",
"3 4 5 6 7 8 9 0 a b c d e f g h i j k l m n o p q r s t u v w x ",
"y z A B C D E F G H I J K L M N O P q Q R S T U V W X Y Z `  ...",
"+.@.#.$.%.&.*.=.-.;.>.,.'.).!.~.{.].^./.(._.:.<.[.}.|.1.2.3.Y 4.",
"5.6.7.8.9.0.a.b.c.d.e.f.g.h.i.j.k.l.m.n.o.p.q.r.s.t.u.v.2.v w.x.",
"y.z.7.8.A.B.C.D.E.F.G.H.p.I.n.J.K.L.M.N.O.P.Q.R.S.C T.U.%.7.V.W.",
"X.Y.Z.$.`. +.+++@+#+$+%+&+*+=+-+;+>+,+'+)+!+~+{+]+^+T./+(+3.V._+",
":+<+[+C }+w .+|+1+2+3+4+5+6+7+8+9+0+a+b+c+d+e+f+g+h+T.i+j+3.V._+",
"k+l+m+n+o+p+q+r+s+t+u+v+w+x+y+x+x+x+z+x+x+A+B+C+D+h+T.E+F+7.V._+",
"G+<+7.H+I+J+K+L+M+N+O+P+P+P+P+Q+Q+P+P+P+P+R+S+T+U+V+W+X+q+3.Y+_+",
"k+Z+7.`+ @J+.@+@@@#@$@%@%@%@%@Q+&@%@%@%@%@%@*@=@-@;@>@,@'@v )@!@",
":+V.A 8.~@{@.+]@^@/@(@_@_@_@_@%@_@_@_@_@_@_@:@<@[@}@>@|@/+A 1@2@",
"2@3@3.4@~@B E+5@6@7@8@_@_@_@_@_@_@_@$@$@_@_@9@0@a@b@c@d@/+A 1@e@",
"2@V.f@8.g@B }+h@i@j@(@_@_@_@_@_@_@_@_@_@_@$@k@l@m@n@B o@/+f@1@e@",
"p@3@q@r@s@t@u@v@w@/@(@8@_@_@_@_@_@_@_@_@(@x@y@z@A@~@B s@q+B@C@e@",
"2@V.f@C o@Z D@E@F@G@H@(@(@8@(@I@J@K@L@M@N@O@P@Q@R@~@H+S@.+T@B.e@",
"U@Z+V@$.W@X@Y@Z@`@ #8@.#+#@###$#%#&#*#=#-#;#>#,#'#d@)#!#~#{#]#^#",
"/#(#_#:#<#[#K+}#|#1#2#3#4#5#6#7#8#9#0#a#b#c#d#e#f#*.g#h#i#j#k#l#",
"m#n#o#p#q#r#s#t#u#v#w#x#y#z#A#B#C#D#E#F#G#H#I#J#K#1.L#M#N#O#P#Q#",
"R#S#T#U#V#W#H+X#Y#Z#`# $.$+$@$#$$$%$&$*$=$-$;$>$,$P#(+'$C )$!$g.",
"~${$]$^$/$($i+_$:$<$[$}$|$1$2$3$4$5$6$7$8$9$0$a$b$c$&.1@2._#P#d$",
"k+Z+5 e$f$B.K+g$h$i$j$k$l$m$n$o$p$q$r$4$4$s$t$u$v$'@w$/+x$f@B.e@",
"y$V.7.`+z$B.K+A$B$C$D$E$F$G$H$I$J$K$L$M$N$O$P$Q$R$h+T.%.S$A T$e@",
"U$O#7.V$W$ +K+X$Y$Z$`$ %.%+%q$@%#%$%%%&%*%=%-%;%>%C.w$,%'%A k#!@",
":+Y+A )%!%w ~%{%]%^%/%(%_%:%<%_%[%}%|%1%2%r$3%4%5%6%w 7%(+8%]$9%",
"0%V.A 8.*.>@^+a%b%c%d%e%f% %g%h%i%j%k%l%m%n%.%o%p%q%>@K+.@3.Y+_+",
"0%z.m+8.r%>@*.s%t%u%v%w%x%y%z%A%B%C%D%E%F%G%H%I%J% @J+o+'@3.V._+",
"0%K%v 8.L%J+E+M%N%O%P%Q%R%S%T%U%V%W%X%Y%Z%`% &.&p%Y@>@+&q+3.Y+_+",
"d${$3.`+ @J+@&#&$&%&&&*&=&%&-&;&>&,&'&)&!&~&{&]&^&/&J+X+.+8%(&_+",
"p@(&7.r@s@B _&:&<&[&}&|&1&2&3&4&5&6&7&8&9&C%0&a&-@b&B d@c&8%d&e&",
":+V.7.r@s@f&g&h&i&j&k&l&m&n&o&p&q&r&s&t&u&v&w&x&y&z&t s@.+8%A&!@",
"B&V.7.r@s@f&x$C&D&E&F&G&H&I&J&K&L&M&N&O&P&Q&R&S&T&U&V&s@q+8%_#9%"};
