/* XPM */
static char * monster_left_side_xpm[] = {
"32 32 187 2",
"  	c #6B4321",
". 	c #442C18",
"+ 	c #482F19",
"@ 	c #4D3418",
"# 	c #543A1A",
"$ 	c #523619",
"% 	c #362110",
"& 	c #3C2411",
"* 	c #664120",
"= 	c #3F2813",
"- 	c #4B3317",
"; 	c #2D1A0C",
"> 	c #35200F",
", 	c #734B23",
"' 	c #4A2E17",
") 	c #331D0D",
"! 	c #704623",
"~ 	c #29170B",
"{ 	c #452B15",
"] 	c #463115",
"^ 	c #613E1E",
"/ 	c #794D26",
"( 	c #663F20",
"_ 	c #5B3D1B",
": 	c #65401F",
"< 	c #4C2520",
"[ 	c #593737",
"} 	c #4B231D",
"| 	c #39210F",
"1 	c #170E08",
"2 	c #130C06",
"3 	c #0E0804",
"4 	c #5A2F2B",
"5 	c #E6BBA7",
"6 	c #340100",
"7 	c #0C0603",
"8 	c #2C0000",
"9 	c #180E07",
"0 	c #361918",
"a 	c #4C2923",
"b 	c #653634",
"c 	c #9A726B",
"d 	c #431711",
"e 	c #461E18",
"f 	c #694B44",
"g 	c #C67A68",
"h 	c #BD7B64",
"i 	c #FFECDD",
"j 	c #250000",
"k 	c #4A1F1A",
"l 	c #3B0B02",
"m 	c #FBE6D8",
"n 	c #562419",
"o 	c #C78473",
"p 	c #BC735A",
"q 	c #BF785F",
"r 	c #A56750",
"s 	c #FBE9E7",
"t 	c #E3E5E8",
"u 	c #E1C9C5",
"v 	c #935545",
"w 	c #836F6C",
"x 	c #070302",
"y 	c #D68E74",
"z 	c #DCA18A",
"A 	c #C5806D",
"B 	c #C47D69",
"C 	c #CB846C",
"D 	c #D49579",
"E 	c #C47B63",
"F 	c #E69E8A",
"G 	c #FED7E1",
"H 	c #FFCBBD",
"I 	c #BA7155",
"J 	c #FEFEFE",
"K 	c #FCF1EB",
"L 	c #88706F",
"M 	c #1F0000",
"N 	c #55170A",
"O 	c #DB9D8A",
"P 	c #E2AF98",
"Q 	c #D48D79",
"R 	c #D98D74",
"S 	c #DA937A",
"T 	c #E5A58C",
"U 	c #49140A",
"V 	c #D19583",
"W 	c #D3856B",
"X 	c #D28B6E",
"Y 	c #985444",
"Z 	c #45160F",
"` 	c #D3877A",
" .	c #EFD7C8",
"..	c #EDD8CA",
"+.	c #D38774",
"@.	c #AA644A",
"#.	c #390100",
"$.	c #C78163",
"%.	c #D2A694",
"&.	c #7A351D",
"*.	c #947D7D",
"=.	c #7A5325",
"-.	c #E5D0BF",
";.	c #FDFAF3",
">.	c #C78C74",
",.	c #DC9980",
"'.	c #B26E5A",
").	c #DCA999",
"!.	c #F5D7CB",
"~.	c #964B3B",
"{.	c #967B78",
"].	c #E7C8BA",
"^.	c #DDC1B2",
"/.	c #B07657",
"(.	c #C3765D",
"_.	c #7C3925",
":.	c #F4636B",
"<.	c #EC6367",
"[.	c #FFCED4",
"}.	c #FDD3DB",
"|.	c #FECDDB",
"1.	c #FBDCDD",
"2.	c #FFDAE3",
"3.	c #EB5769",
"4.	c #C1785F",
"5.	c #CD8A72",
"6.	c #D2B29A",
"7.	c #843B2A",
"8.	c #FED2D5",
"9.	c #F5CBD2",
"0.	c #B5694E",
"a.	c #DDABA5",
"b.	c #753828",
"c.	c #7A3423",
"d.	c #8C7978",
"e.	c #FFCCCD",
"f.	c #8B422E",
"g.	c #632A33",
"h.	c #F3C8CA",
"i.	c #A75E47",
"j.	c #9A8884",
"k.	c #F5BACC",
"l.	c #8A483B",
"m.	c #B86A4E",
"n.	c #BA6D54",
"o.	c #A29090",
"p.	c #893E45",
"q.	c #B66A51",
"r.	c #7C3F30",
"s.	c #94454A",
"t.	c #B4664E",
"u.	c #8C6E69",
"v.	c #775024",
"w.	c #B36751",
"x.	c #835927",
"y.	c #2A1715",
"z.	c #300A00",
"A.	c #461B15",
"B.	c #A75E4B",
"C.	c #A6A29D",
"D.	c #0B0609",
"E.	c #1D1617",
"F.	c #B9B8B7",
"G.	c #3E130C",
"H.	c #A6B0B2",
"I.	c #C2C3C3",
"J.	c #ACACAD",
"K.	c #B4B5B4",
"L.	c #060202",
"M.	c #230F0E",
"N.	c #2A2623",
"O.	c #BFBEC2",
"P.	c #B5B4B8",
"Q.	c #8A8788",
"R.	c #4C4748",
"S.	c #A4A5A4",
"T.	c #CFCFCF",
"U.	c #825728",
"V.	c #9D9D9B",
"W.	c #151212",
"X.	c #312B2D",
"Y.	c #BBBBBC",
"Z.	c #A6AAA7",
"`.	c #D6D6D6",
" +	c #6F4A21",
".+	c #1D1209",
"++	c #5E401D",
"    . + @ @ # # $ # # # # @ $ # + + # # # # # # # @ # # @ $ % & ",
"*   & = @ @ # @ # # # # @ # - @ = = @ - # $ # # @ @ - @ + @ ; > ",
"* *   , + ' + $ ) > > ; @ + !         ! ~ > > ~ !   *   @ # + + ",
"!   *   { { + + ; > ; ; # ' !   *   * ! ~ ) ) ~ ,   *   ] @ + @ ",
"+ & ! ^         $ $ , / ~ ) ' { # # # # ( _ _ * { { : ^ : , ~ ) ",
"$ ' / ,   ! < [ # _ } [ ) | _ @     _ ( _ ( (   $ $ / ! ! / ) { ",
"1 2 3 < < 4 5 6 7 7 8 5 [ 9 0 a a b c d e } 4 f 2 7 ) ) ; ) 2 2 ",
"1 3 < g h 6 i j } k l m 8 n o p q r b s t u h v w 7 ) ) ) | x 7 ",
"^ # 6 y s 8 z A B A C D o E F G H I [ J K D y y v L _ _ - ' / , ",
"$ - M F N o y y O P Q y R S Q O T B U V D W C W X Y L $ { { ! : ",
"# - , Z n S X `  ...Q y y S +.@.#.N E $.W %.J J  .p &.*.: ! - - ",
"# - =.6 6 F F -.;.m >.X S ,.C p '.p $.X ).J J J J !.~.j {.! - # ",
"- . M ].m 6 8 J J ;.s ^.j N S /.I (.C R ).J J J J J ]._.6 *.{ { ",
"$ 8 ;.K :.<.[.}.|.1.G 2.[.3.<.p I 4.y y 5.6.J J J J u 7.6 {.' ' ",
"1 6 1.}.|.}.8.[.|.|.|.9.}.}.1.).0.E R y y 5.a.J J ..B 7.b.c.d.2 ",
"2 6 8.[.}.[.e.[.|.|.|.[.8.8.}.!.@.q y y R y 5.>.` >.W f.b.7.{.9 ",
"/ 8 e.2.g.}.|.[.|.|.|.h.b }.1.9.i.(.Q y y y Q R y y A f.6 _.c.j.",
": : j e.2.|.|.|.|.|.|.}.}.}.k.l.m.n.W Q y y y y R y (.f.l l 6 o.",
"# @ - j [.[.[.|.|.8.|.|.}.9.p.m.q.n.E R S y y y $.p n.r.d.# 3 9 ",
"@ ] - - 8 6 6 6 6 6 s.s.p.s.t.t.m.p n.4.E E E p p n._.u.- # 7 9 ",
"v.v.: ! { { { { 6 U q.@.n.w.t.t.t.w.n.n.m.0.q.t.w.t._.L   , ) & ",
"x.x., / - $ @ @ 7 y.z.A.'.t.t.t.B.B.B.B.B.@.t.q.w._.w + , / ) & ",
"2 7 7 x | > ) ) C.D.E.F.8 v @.l.G.d d e Z A.v v r.f H.I.) ) 2 9 ",
"3 x 2 x ) ; ; ; J.K.K.C.L.y.M.N.O.P.P.P.Q.L.y.1 R.K.S.T.; ) x 3 ",
"U.x.! ,     =.=.=.J.C.V.W.y.X.Y.S.Z.S.H.Q.W.W.R.P.S.`.! =.=.x.x.",
"v.v.:     ^ v., , =.J.F.I.K.J.S.S.S.S.S.H.H.O.O.K.T.: : v./ ,  +",
"@ - { .   : ^   & { - { $ Y.K.K.K.K.K.P.K.K.6.`.: : - - - ] : ^ ",
"# # - {         { - { { @ # .+.+' & , ^ : , { ] !   @ # $ @ ! : ",
"@ ' - - @ @ @ @ # -       ! ; ) ,   (   { { # # - - # @ $ @ - @ ",
"_ $ # # # # ++++# # ,   ! =.> ) / , ! / - - # # # # _ _ _ _ _ _ ",
"2 2 2 7 | | x 7 | > ; > 7 3 1 9 7 3 2 x | > > > > > 7 2 3 2 2 3 ",
".+.+.+9 & & 9 9 | & > & 1 .+.+.+.+.+.+1 & > > | | | 9 .+.+.+.+.+"};
