/* XPM */
static char *result[] = {
/* columns rows colors chars-per-pixel */
"32 32 78 1 ",
"  c #070302",
". c #0B0603",
"X c #0E0903",
"o c #120B05",
"O c #180E07",
"+ c #170E08",
"@ c #1D1209",
"# c #0E0916",
"$ c #110C15",
"% c #29170B",
"& c #2D1A0C",
"* c #331D0D",
"= c #36200F",
"- c #39210F",
"; c #372211",
": c #3C2411",
"> c #3F2813",
", c #110D26",
"< c #120E2A",
"1 c #15102E",
"2 c #161132",
"3 c #231D28",
"4 c #08353C",
"5 c #2B2525",
"6 c #2D2827",
"7 c #362824",
"8 c #393532",
"9 c #452B15",
"0 c #4A2E17",
"q c #442C18",
"w c #482E19",
"e c #473115",
"r c #4B3317",
"t c #4D3418",
"y c #52351A",
"u c #543A1A",
"i c #5B3D1B",
"p c #613E1E",
"a c #443F3C",
"s c #663F20",
"d c #5E401D",
"f c #65401F",
"g c #664120",
"h c #6B4421",
"j c #6F4A21",
"k c #704623",
"l c #734B23",
"z c #7A4D26",
"x c #775024",
"c c #7A5325",
"v c #7E5028",
"b c #015C53",
"n c #01655B",
"m c #006D64",
"M c #00746A",
"N c #017C72",
"B c #874D2E",
"V c #815627",
"C c #835927",
"Z c #825728",
"A c #835929",
"S c #885B29",
"D c #945733",
"F c #9B5D36",
"G c #9F6039",
"H c #A4663E",
"J c #AC6E46",
"K c #AF7149",
"L c #B0744B",
"P c #B77E54",
"I c #01857A",
"U c #01897E",
"Y c #BF8657",
"T c #C28A5B",
"R c #CA9463",
"E c #CE9967",
"W c #CF9A68",
"Q c #D29D6C",
/* pixels */
"hhqwtyuuuuu.......Xuuuuuuuuuty;:",
"gh:>twutuuu..XXXXXXeuuuueett9y&*",
"gghl9twy&==Xo..XX.Xl%==%lhhhtuwe",
"jhgh99ww&=&.XXoX.ook%=&%lhphetwt",
"q:hphhhhutk.XXXXGJoudiff99fphl%*",
"y0zzhkkliulXX..XGHJfppffyyzkhz*9",
"+oX *&&*..=XXo7KJFD&*=.Xo.**&*XO",
"+o. **&*  *FHGHLKGB%%* .o.***- .",
"puSSutCcCcccCmNIUVcccVkliiuit0zl",
"uezz99xjxxllxmmMUxxxxcfk9rry99kf",
"urljxxpheeff>nbnm9rr0r09kfkfflrr",
"urcxlxsherkf9n4bb9rrrr09kffkkfyu",
"wq>:tetefffffYPLJfffpkyy0t909999",
"ytwwiiuyzllffRTTTjlzlzyuuiyyui00",
"+X:-..:*&&&&*RWQW..o..****.ooooo",
"o **  *&**=*&RQWQ.....*&&*..XXOO",
"llVcCCkkuuuuZRQWQCCVCCcccccClV**",
"hpcljlpkerr9xWQQQzxllllljlxcpl*9",
"yteefppffhhhpEQWWr09fh9efferru.O",
"rryekhkfhfhfhRRWQrrehfrekkturi.O",
"xcfh9999tttrt,#,1ffffffkerytkk*:",
"cSjvettyiuddi<,,2zkhlzkluduykz*-",
"X...-===*=.Xo,,12 *=..**XX-***oO",
"o...=&%&%*.XX<$,1.**  *-  *&&* .",
"vAllhhcccckzz1111ZccVSytSChhccZZ",
"xxgggplzzlfff,$,2cllfxrrxlshxxjl",
"trw9hffg99e9t<,,1:ffff99gheerefp",
"uuewkfhj9r99t<122:lffl99hktuythh",
"y000tttrurhhf11<2fff99uurrutyttr",
"yyuuuuuduukjl5311xlVetuuuuiiiiid",
"OooX--XX-=&*.8658.o -===*=.ooXXo",
"%@@O>-+O--->O88aa@@O>==---O@@@@@"
};
