/* XPM */
static char *result[] = {
/* columns rows colors chars-per-pixel */
"32 32 93 2 ",
"   c #070302",
".  c #0B0603",
"X  c #0E0903",
"o  c #130B05",
"O  c #180E07",
"+  c #160E08",
"@  c #1D1209",
"#  c #29170B",
"$  c #2D1A0C",
"%  c #331E0D",
"&  c #36200F",
"*  c #39210F",
"=  c #372211",
"-  c #3C2411",
";  c #3F2813",
":  c #15102F",
">  c #161130",
",  c #181336",
"<  c #1A143C",
"1  c #322E33",
"2  c #452B15",
"3  c #4A2E17",
"4  c #442C18",
"5  c #482E19",
"6  c #473115",
"7  c #4B3317",
"8  c #4D3318",
"9  c #52351A",
"0  c #543A1A",
"q  c #5B3D1C",
"w  c #613E1F",
"e  c #683723",
"r  c #663F20",
"t  c #693823",
"y  c #5E401D",
"u  c #65401F",
"i  c #46413E",
"p  c #674121",
"a  c #6B4421",
"s  c #6F4A21",
"d  c #704623",
"f  c #734B23",
"g  c #7A4D26",
"h  c #775024",
"j  c #7A5325",
"k  c #1C1640",
"l  c #1F1847",
"z  c #1F1848",
"x  c #20194A",
"c  c #251C54",
"v  c #261D58",
"b  c #393150",
"n  c #2B2164",
"m  c #433D42",
"M  c #015A51",
"N  c #01655A",
"B  c #00685E",
"V  c #006E65",
"C  c #007167",
"Z  c #01746A",
"A  c #01796F",
"S  c #017D73",
"D  c #4E4946",
"F  c #544F4B",
"G  c #57524D",
"H  c #6C645C",
"J  c #70675E",
"K  c #7C7166",
"L  c #815627",
"P  c #835927",
"I  c #825728",
"U  c #885B29",
"Y  c #AE7048",
"T  c #B0734B",
"R  c #018177",
"E  c #01857B",
"W  c #BA8155",
"Q  c #C08758",
"!  c #C99362",
"~  c #CD9866",
"^  c #CF9A68",
"/  c #D29E6C",
"(  c #D6A376",
")  c #D8A77A",
"_  c #018E84",
"`  c #009187",
"'  c #00978B",
"]  c #009A8E",
"[  c #019F93",
"{  c #02A397",
"}  c #02A498",
"|  c #06A89B",
" . c #0DAEA1",
/* pixels */
"a a 4 8 8 8 0 0 0 0 0 . . . . . . . . 0 0 0 0 0 0 0 0 0 8 9 = - ",
"p a = ; 8 5 0 9 0 0 0 o . . X . . . . 6 0 0 0 0 6 6 7 8 3 8 $ % ",
"p p a f 3 3 5 9 $ % % . o X . X X . . f # & & # f p a d 8 0 5 8 ",
"s a p a 2 3 4 5 % % $ X X o X X . o . d # & $ # f p u a 7 8 5 5 ",
"4 - d w p p a d 9 9 f X X X X X o o . 0 w q u u 2 2 u u u d # % ",
"9 3 g f a d d f 0 q f X . X X X . X . y w w u u 9 9 g d f g & * ",
"+ o .   % $ $ % . . % . . X X X X X X % % & . X o . % $ $ % o O ",
"+ o .   * % # %     % d e o X . . e t # # %   . o . * % % *   X ",
"q 0 U U 7 0 P `  . .{ A ] { | { [ E Z `  . .{ g 0 q 0 q 9 3 g f ",
"0 8 f g 2 2 h [  .{  .S _ ] } | [ E S [  .{  .a 7 7 7 9 2 2 d u ",
"0 7 g s f j w ` ' ] ] R _ { }  .{ _ S ` ' ] ] 2 d u u a u d 7 7 ",
"0 7 j h g j w Z S E ] R {  .{ ] _ _ Z Z S E ] 3 d u d u u d 7 0 ",
"5 2 - ; 8 3 8 Y W T ! N _ ` { { R _ Z T T T ~ 0 3 9 2 3 3 3 2 2 ",
"9 8 5 4 y q 0 Q ! Q Q M E _ { ] R S Z Q ! Q Q q 0 q 9 9 0 q 3 3 ",
"+ X - - . . & ! ~ ^ ! N E E [ { E V B ! / / Q % % % . o o o o o ",
"o   % %     % / ) / / C E E { ' _ Z N / ) / / $ $ % . . . . O O ",
"g f j j P P d ^ ! / / C A S _ ' ' E M ^ ~ ^ / j j j P P f L % - ",
"u w j h f f w / ! / / N B V A S _ V N ( ~ / / f f f f j w f % - ",
"9 8 7 6 u w u / / ( ) : > : C S Z x : ^ ^ ( ) 3 u u 6 6 7 0 . O ",
"8 6 8 7 d u u ) / ) / < k k > V c c z ) / ) / 6 a s 8 9 7 q . O ",
"j j u d 2 2 2 2 8 7 8 c c c < c v n k a u u a d 6 8 9 7 d d % - ",
"j P f g 7 9 9 7 q 0 q c v n c v n v c a f f a f 0 q 0 9 d g % - ",
"X . . . * & & & % & . c n c v n n c c & .   % % X X - % % % o + ",
"o . X   % $ # $ # % . c c c b x c c n %     - %     % $ # %   X ",
"I I f f a a j j j j f < < x k < , x 1 j L U 8 8 U P a a j j P P ",
"h h p u u r f f f j u < < < , k < < : f u h 7 7 h f p p j f s f ",
"8 5 5 4 a u u a - 2 2 l x c x < x c x u u u 2 3 p p 6 8 7 6 p w ",
"0 0 6 3 d u a a 3 6 3 x c c v x c c c u s f 2 2 d a 8 0 9 7 d p ",
"9 3 7 7 8 8 7 7 0 7 a < z m c < x n c a 2 2 0 0 7 7 9 9 9 8 8 8 ",
"9 9 9 9 0 0 y y 0 0 f i H G G c H H G g 7 7 0 0 0 0 q q q q q q ",
"+ O o X * * . . * & $ D K H F i K H i   * & % & % & X o X o X o ",
"# @ @ O - - + + - = = D H H i G J H n + - & & * * - o @ @ @ @ @ "
};
