/* XPM */
static char *result[] = {
/* columns rows colors chars-per-pixel */
"32 32 80 1 ",
"  c #070302",
". c #0B0603",
"X c #0E0903",
"o c #130B05",
"O c #180E07",
"+ c #170E08",
"@ c #1D1209",
"# c #0E0916",
"$ c #110C15",
"% c #29170B",
"& c #2D1A0C",
"* c #331D0D",
"= c #36200F",
"- c #39210F",
"; c #372211",
": c #3C2411",
"> c #3F2813",
", c #110D26",
"< c #120E2A",
"1 c #15102E",
"2 c #161132",
"3 c #191339",
"4 c #231D28",
"5 c #08353C",
"6 c #2B2525",
"7 c #2D2827",
"8 c #393532",
"9 c #452B15",
"0 c #4A2E17",
"q c #442C18",
"w c #482E19",
"e c #473115",
"r c #4B3317",
"t c #4D3418",
"y c #52351A",
"u c #543A1A",
"i c #5B3D1B",
"p c #613E1E",
"a c #443F3C",
"s c #663F20",
"d c #5E401D",
"f c #65401F",
"g c #664120",
"h c #6B4421",
"j c #6F4A21",
"k c #704623",
"l c #734B23",
"z c #7A4D26",
"x c #775024",
"c c #7A5325",
"v c #7E5028",
"b c #015C53",
"n c #01655B",
"m c #006D64",
"M c #00746A",
"N c #017C72",
"B c #874D2E",
"V c #815627",
"C c #835927",
"Z c #835929",
"A c #885B29",
"S c #9F5F39",
"D c #9F6039",
"F c #A4653E",
"G c #AC6D45",
"H c #AE6F48",
"J c #AD7047",
"K c #AE7048",
"L c #B0744C",
"P c #B77E54",
"I c #B87F55",
"U c #01857A",
"Y c #01897E",
"T c #BF8758",
"R c #C28A5B",
"E c #C79160",
"W c #CA9463",
"Q c #CE9967",
"! c #CF9A68",
"~ c #D29D6C",
/* pixels */
"hhqwtyuuyuuXoXXX...uuuuuuuuuty;:",
"gh:>twutuuu.oXXX.oXeuuuurert0y&*",
"gghl9twy&**oXXX...ok%*=%lhghruww",
"jhgh99ww**&ooXXXXX.l%=&%lhphetwt",
"q:hphhhhuuk6JFXX.XXudpff99fphl%*",
"y0zzhkkluulGJJXX.XXfpiffyuzkhz*9",
"+oX *&&*..*BFHL6X.X&*=.Xo.*&&*oo",
"+o. **&*  *BSPEHJDB%%* Xo.-**- .",
"puAAttCcAcccVmNUYVcccVkzupuuy0zl",
"uelz99cfcxjxlmmMYxxxlzpk9rry99kf",
"urzjxciheeff>mbnn9rerr99kfkkflrr",
"urcxlzhherfj9n5bbeyrrr09kfffkfyu",
"w9>:t9rekfpfhIPKJfhfpkuut0909999",
"ytwwfiuulkjjhWRRTklzkzuuuiyyui00",
"+X:;..=*&&&&&W!~QoX...****.ooooo",
"o **  *&****&W~~~.....*&&*..XXOO",
"zlccCChkuiuuVW~!~CVVCVccccVClV**",
"hfclllpheerez!~~~llllllxlllcpl*9",
"uerefpphfhhhpQ~!Qrreffeeffretu.O",
"terekhhshffhfWW~~rrrhheekfyuru.O",
"ccfk9999rrrrr,#,1ffhfffkeryrkk*9",
"vZkzryyyiuidi,,,3lhklzhliiuukz*-",
"X.X -==**-.oo,,12 **. **..**&*oO",
"o.X.*&%&%*.Xo,$,1.**  --  **&* .",
"vZllhhcccclzz<1,2CccVAyyAChhccVV",
"xxgggslllzfff,,,2xjljxrrxlshclll",
"tre9hsfg99e9y,,,1;hpph99hheeeeff",
"uuewhhhj9r99r1112:hfhk99hhtuurhh",
"y00rtttrurfhf11<2ffj99uyrruryyrr",
"iyyuuudduulkl6411llceruuuuiiiiii",
"OXoX== .-*&=.8768.o -=***-.oXoXo",
"%@@O->++>---+88aa@@+>;--:-+@@@@@"
};
